<svg width="340" height="80" viewBox="0 0 340 80" fill="none" xmlns="http://www.w3.org/2000/svg">
<path d="M12.6 -1.19209e-06V64.6L15.7 67.7H50.3V80H7.45058e-08V-1.19209e-06H12.6ZM119.213 -1.19209e-06V12.3H81.5125L78.4125 15.4V30.8L81.5125 33.8H112.913V46.2H81.5125L78.4125 49.2V64.6L81.5125 67.7H119.213V80H65.8125V-1.19209e-06H119.213ZM177.991 -1.19209e-06L190.591 12.3V18.5H177.991L171.791 12.3H155.991L149.791 18.5V27.7L155.991 33.8H177.991L190.591 46.2V67.7L177.991 80H149.791L137.191 67.7V61.5H149.791L155.991 67.7H171.791L177.991 61.5V52.3L171.791 46.2H149.791L137.191 33.8V12.3L149.791 -1.19209e-06H177.991ZM255.67 -1.19209e-06L271.37 15.4V64.6L255.67 80H224.27L208.57 64.6V15.4L224.27 -1.19209e-06H255.67ZM221.07 58.5L230.57 67.7H249.37L258.87 58.5V21.5L249.37 12.3H230.57L221.07 21.5V58.5ZM301.924 -1.19209e-06V64.6L305.024 67.7H339.624V80H289.324V-1.19209e-06H301.924Z" fill="white"/>
</svg>
