<svg width="136" height="32" viewBox="0 0 136 32" fill="none" xmlns="http://www.w3.org/2000/svg">
<path d="M5.0399 -4.76837e-07V25.84L6.2799 27.08H20.1199V32H-9.91523e-05V-4.76837e-07H5.0399ZM47.6849 -4.76837e-07V4.92H32.6049L31.3649 6.16V12.32L32.6049 13.52H45.1649V18.48H32.6049L31.3649 19.68V25.84L32.6049 27.08H47.6849V32H26.3249V-4.76837e-07H47.6849ZM71.1965 -4.76837e-07L76.2365 4.92V7.4H71.1965L68.7165 4.92H62.3965L59.9165 7.4V11.08L62.3965 13.52H71.1965L76.2365 18.48V27.08L71.1965 32H59.9165L54.8765 27.08V24.6H59.9165L62.3965 27.08H68.7165L71.1965 24.6V20.92L68.7165 18.48H59.9165L54.8765 13.52V4.92L59.9165 -4.76837e-07H71.1965ZM102.268 -4.76837e-07L108.548 6.16V25.84L102.268 32H89.708L83.428 25.84V6.16L89.708 -4.76837e-07H102.268ZM88.428 23.4L92.228 27.08H99.748L103.548 23.4V8.6L99.748 4.92H92.228L88.428 8.6V23.4ZM120.77 -4.76837e-07V25.84L122.01 27.08H135.85V32H115.73V-4.76837e-07H120.77Z" fill="#2BA1DB"/>
</svg>
